<?xml version="1.0" standalone="no"?><!DOCTYPE svg PUBLIC "-//W3C//DTD SVG 1.1//EN" "http://www.w3.org/Graphics/SVG/1.1/DTD/svg11.dtd"><svg t="1627658704847" class="icon" viewBox="0 0 1024 1024" version="1.1" xmlns="http://www.w3.org/2000/svg" p-id="953" xmlns:xlink="http://www.w3.org/1999/xlink" width="200" height="200"><defs><style type="text/css"></style></defs><path d="M0 0h1024v1024H0z" fill="#90EE90" p-id="954"></path><path d="M512 96c159.061333 0 288 128.938667 288 288 0 67.264-23.210667 130.837333-64.277333 181.397333l-2.901334 3.434667 4.181334 2.858667a394.581333 394.581333 0 0 1 169.322666 307.946666l0.256 8.021334 0.085334 8A32 32 0 0 1 874.666667 928H149.333333A32 32 0 0 1 117.333333 896c0-131.498667 64.896-251.52 169.557334-324.245333l4.266666-2.901334-2.88-3.456a286.997333 286.997333 0 0 1-64.170666-173.333333L224 384c0-159.061333 128.938667-288 288-288zM458.666667 384h-64l0.085333 4.714667A117.333333 117.333333 0 0 0 629.333333 384h-64l-0.106666 3.498667A53.333333 53.333333 0 0 1 458.666667 384z" fill="#FFA500" p-id="955" data-spm-anchor-id="a313x.7781069.0.i0" class="selected"></path></svg>