<svg width="1280" height="720" xmlns="http://www.w3.org/2000/svg" xmlns:xlink="http://www.w3.org/1999/xlink" overflow="hidden"><defs><clipPath id="clip0"><rect x="0" y="0" width="1280" height="720"/></clipPath></defs><g clip-path="url(#clip0)"><rect x="0" y="0" width="1280" height="720" fill="#FFFFFF"/><rect x="152.5" y="289.5" width="142" height="142" stroke="#2F528F" stroke-width="1.33333" stroke-miterlimit="8" fill="#FFFFFF"/><text fill="#4472C4" font-family="DengXian,DengXian_MSFontService,sans-serif" font-weight="400" font-size="24" transform="translate(162.598 368)">实体数据块</text><rect x="430.5" y="289.5" width="142" height="142" stroke="#2F528F" stroke-width="1.33333" stroke-miterlimit="8" fill="#FFFFFF"/><text fill="#4472C4" font-family="DengXian,DengXian_MSFontService,sans-serif" font-weight="400" font-size="24" transform="translate(452.866 368)">逻辑数字</text><rect x="708.5" y="289.5" width="142" height="142" stroke="#2F528F" stroke-width="1.33333" stroke-miterlimit="8" fill="#FFFFFF"/><text fill="#4472C4" font-family="DengXian,DengXian_MSFontService,sans-serif" font-weight="400" font-size="24" transform="translate(731.134 368)">逻辑坐标</text><rect x="986.5" y="289.5" width="142" height="142" stroke="#2F528F" stroke-width="1.33333" stroke-miterlimit="8" fill="#FFFFFF"/><text fill="#4472C4" font-family="DengXian,DengXian_MSFontService,sans-serif" font-weight="400" font-size="24" transform="translate(1009.4 368)">实体位置</text><path d="M294.5 340.167 424.163 340.167 424.163 340.833 294.5 340.833ZM422.83 336.5 430.83 340.5 422.83 344.5Z" fill="#4472C4"/><path d="M2.56698e-07-0.333333 129.663-0.333233 129.663 0.333433-2.56698e-07 0.333333ZM128.33-3.9999 136.33 0.000104987 128.33 4.0001Z" fill="#4472C4" transform="matrix(-1 0 0 1 430.83 380.5)"/><text fill="#548235" font-family="DengXian,DengXian_MSFontService,sans-serif" font-weight="400" font-size="12" transform="translate(336.792 328)">$().text()<tspan font-size="12" x="1.76715" y="71">$(“#id”)</tspan></text><path d="M572.5 340.167 702.163 340.167 702.163 340.833 572.5 340.833ZM700.83 336.5 708.83 340.5 700.83 344.5Z" fill="#4472C4"/><path d="M2.56698e-07-0.333333 129.663-0.333233 129.663 0.333433-2.56698e-07 0.333333ZM128.33-3.9999 136.33 0.000104987 128.33 4.0001Z" fill="#4472C4" transform="matrix(-1 0 0 1 708.83 381.5)"/><text fill="#548235" font-family="DengXian,DengXian_MSFontService,sans-serif" font-weight="400" font-size="12" transform="translate(576.628 328)">numbersToCoordinate[i]<tspan font-size="12" x="35.5101" y="71">n</tspan><tspan font-size="12" x="42.1768" y="71">umbers[i]</tspan></text><path d="M850.5 360.167 980.163 360.167 980.163 360.833 850.5 360.833ZM978.83 356.5 986.83 360.5 978.83 364.5Z" fill="#4472C4"/><text fill="#548235" font-family="DengXian,DengXian_MSFontService,sans-serif" font-weight="400" font-size="12" transform="translate(903.953 352)">p<tspan font-size="12" x="6.83337" y="0">os[i]</tspan></text></g></svg>